<svg version="1.2" xmlns="http://www.w3.org/2000/svg" viewBox="0 0 2560 1600" width="2560" height="1600">
	<title>persistance-svg</title>
	<style>
		.s0 { fill: #ffffff } 
		.s1 { fill: #000000 } 
	</style>
	<g id="Layer">
		<g id="Layer">
			<path id="Layer" fill-rule="evenodd" class="s0" d="m628 1010.5c-5.7 0.5-11.4 1.1-17.2 1.5-4.1 0.3-9.3 3.1-11.6-2.4-8.6-20.9 30-11.2 6.9-55.3-8.7-16.6-13.1-35.9-22.6-51.6-12-19.9-20.8-39.7-23-62.7-0.4-3.9-3.9-5.4-6.8-7.1-3.7-2.2-7.5-4.6-11.5-5.9-7.8-2.5-16.7-14.2-20.7-9.7-7 7.7-12.5 19.4-11 31.4 1.5 11.7-0.2 23.3-0.5 34.9-0.4 12.6-9.5 19.1-20.8 15-17.2-6.3-37.4-22-31.6-32.7 2.7-5 8.1-4.2 11.7-2.5 16 7.5 19-2.2 17.9-14.1-6.3-69.4-3-89.1 31.2-86.1 11.5 1 23.1-1 34.5 2.6 8.1 2.5 11.9-1.5 10.4-9.9-0.6-3.3-2.3-6.5-2.3-9.8 0.2-16.1-6.5-18.6-22.4-17-26.3 2.7-56.7-17.4-64.9-48.4-3.9-14.7-4.4-40.6-30.5-26.2-18.1 10-37.3 17-57 22.5-14.7 4.2-30.3 4-44.6 0.1-130.5-35.8-106.6-36.4-143.2-69.6-31.3-28.5-57.3-61.8-83.7-94.6-16.1-19.9-21.6-43.7-20.7-68.7 0.3-9-2-17.3-3.1-25.9-3.4-28-2.6-56.1-2.4-84.2 0.7-68.1 79.8-119.9 140.8-167.9 29.1-22.9 61.4-28.8 96.1-29.9 23.4-0.8 80.1-10.5 123.7 7.6 25.7 10.7 52.1 20.3 76.7 33.2 15.9 8.3 26.7 26.4 44.3 31.4 15.7 4.4 20.1 19.2 31.8 27.1 7.6 5.2 11.5 18.6 16.4 28.4 12 24.4 16.5 51.3 21.7 77.9 2.2 11.3 0.1 21.3-1.7 31.3-3.9 21.1 3.2 42.4-2.6 63.1-7.6 27.4-14.7 55-33.5 77.6-16.2 19.4-17.7 35.8-4.5 56.9 16.1 25.8 23.9 55.5 39 82 6.2 10.7 3.9 26.1 1.1 38.7-3.2 14-4.1 28.9-10.7 42.1-13.4 26.7 6.9 42.1-6.3 104-16.2 76.1 22.6 77.7 10 115.8-3.8 11.6 6.3 19.1 11.2 38.1 2.7 10.8-0.9 16.6-12.2 17.2q-0.9 0.9-1.8 1.8zm-33.5-370.8c-2-22-14.1-40.8-18.7-61.8-0.6-2.7 0.2-6.4-3.1-7.5-4.2-1.4-5.9 2.3-7.8 5-56.2 76.5-87.2 55.2-75.4 77.9 10 19.2 22.3 34.7 47 33.4 15.2-0.7 8.2-5.6 0.3-29.1-4.7-13.8-0.1-28.8 10.2-34.6 11-6 27.3-2.2 36.7 8.2 2.9 3.2 3.9 9.3 10.8 8.5z"/>
			<path id="Layer" class="s1" d="m629.8 1008.7c1.2 2.3 0.4 2.7-1.8 1.8q0.9-0.9 1.8-1.8z"/>
		</g>
		<path id="Layer" class="s0" d="m0 0c0 1545.3 2560 1545.3 2560 0v1600h-2560z"/>
	</g>
</svg>